<svg xmlns="http://www.w3.org/2000/svg" version="1.1" xmlns:xlink="http://www.w3.org/1999/xlink" width="595.24" height="601.74"><svg xmlns="http://www.w3.org/2000/svg" version="1.1" xmlns:xlink="http://www.w3.org/1999/xlink" width="595.24" height="601.74"><svg xmlns="http://www.w3.org/2000/svg" id="Layer_1" data-name="Layer 1" viewBox="0 0 595.24 601.74"><defs><style>.cls-1{fill-rule:evenodd}.cls-1,.cls-2{fill:#fff}</style></defs><rect width="595.24" height="601.74" rx="297.62" ry="297.62"></rect><path d="M288.13 372.21a.5.5 0 0 1-.13-.67c1.66-2.56 2.52-5.28 2.56-8.17.08-4.57-2.32-8.71-5.73-11.68-3.36-2.93-7.14-4.26-11.34-4.02h-.02c-.18 0-.32-.15-.32-.32v-.02c.23-2.63-.62-5.31-2.56-8.04-3.24-4.56-8.24-6.55-13.75-6.92a.415.415 0 0 1-.37-.32c-1.62-7.95-8.1-13.66-16.35-13.51-.17 0-.32-.1-.38-.25-1.16-2.93-1.88-4.63-2.16-5.08-2.72-4.39-7.1-7.96-12.35-8.44-5.41-.49-9.55 2.72-13.4 6.43-.48.45-1.16.61-1.79.42-.31-.1-.77-.38-1.39-.85-28.55-21.88-57.77-44.21-87.67-66.99a73 73 0 0 1-8.15-7.22c-.44-.46-.65-1.02-.64-1.69.04-1.84 1.02-2.81 2.93-2.9 2.01-.1 4.43-.14 7.26-.14 30.87.04 73.35.06 127.44.05 2.09 0 2.56-.87 3.23-2.78q18.135-52.575 22.83-66.36c7.01-20.62 14.66-41.91 22.26-64.06.47-1.38 1.27-3.36 2.44-4.18q2.805-1.95 5.58.33c.55.45 1.14 1.48 1.76 3.1q2.4 6.18 5.4 14.73c17.7 50.42 30.96 88.24 39.77 113.46 0 .02.01.04.01.07 0 .12-.1.21-.21.21h-.02c-6.55-.71-12.7-1.06-18.44-1.05-10.94.02-20.11 4.42-28.42 11.29q-3.945 3.255-4.56 3.75c-11.72 9.26-24.24 19.2-37.55 29.8-1.07.85-1.98 1.55-2.74 2.1-7.13 5.16-8.69 14.02-2.81 20.85.89 1.04 2.26 2.19 4.09 3.44 4.44 3.03 8.93 4.2 13.46 3.5q4.755-.735 9.78-4.56.63-.48 11.22-9.18c1.01-.83 3.43-2.8 7.25-5.91 2.89-2.35 5.08-3.72 6.58-4.11 3.31-.87 6.46-.09 9.43 2.35 4.44 3.63 10.51 8.71 18.2 15.25 5.75 4.88 11.77 9.95 18.07 15.2 13.95 11.64 21.87 18.29 23.75 19.96 3.36 2.97 4.95 7.08 3.28 11.32-1.61 4.09-7.59 7.15-11.76 5.78q-1.875-.615-3.45-1.86c-10.62-8.33-23.03-18.44-37.22-30.33-.89-.75-2.23-.66-3.01.21l-.05.06c-.34.37-.52.86-.52 1.36 0 .6.27 1.17.72 1.55 5.11 4.29 13.48 11.15 25.1 20.58 7.24 5.88 10.93 8.87 11.05 8.96 3.4 2.77 4.99 6.04 2.79 10.27-2.37 4.57-7.32 6.7-12.36 5.17-1.12-.34-2.71-1.36-4.77-3.05-12.49-10.25-20.76-17.19-31.27-25.82-.83-.68-1.63-.98-2.42-.92-.77.07-1.24.4-1.42.99-.57 1.81.8 3.1 2.12 4.17 11.36 9.22 20.01 16.26 25.96 21.12 3.01 2.46 4.96 3.91 5.62 7.24.7 3.53-2.58 7.27-5.41 9.01-3.39 2.08-7.02 1.53-10.41-.41-.78-.45-1.92-1.33-3.42-2.65-.73-.64-1.88-1.6-3.45-2.87-8.15-6.61-12.7-10.35-13.66-11.21-2.41-2.16-4.7-3.99-6.85-5.52-.86-.61-2.06-.42-2.7.42l-.04.05c-.63.83-.51 2.01.27 2.7 3.33 2.94 9.78 8.45 14.92 12.59 4.66 3.75 9.02 7.46 6.85 13.87-1.1 3.26-4.2 6.08-7.61 6.84-1.56.35-3.15.28-4.76-.21-.95-.28-2.33-1.07-4.15-2.35-5.86-4.12-10.56-7.45-14.09-9.97-1.98-1.41-3.44-2.23-5.9-3.98Z" class="cls-2"></path><path d="M496.14 229.35c1.36 1.46.27 3.68-.92 5.05q-4.545 5.22-9.54 9.21c-3.87 3.09-7.46 5.69-10.77 7.79-9.86 6.26-20.65 10.2-32.37 11.8-4.38.6-9.46.96-15.23 1.07q-11.385.225-21.9.36c-12.82.17-25.78 2.7-36.92 9.74-6.45 4.08-13.25 8.02-18.57 11.16-.92.54-2.63 1.2-5.13 1.96-.18.05-.36.07-.54.05-2.11-.21-3.88-.88-5.31-2.03-2.15-1.72-6.86-5.58-14.14-11.59q-4.74-3.915-10.77-4.44c-3.55-.31-6.93 1.79-9.98 4.13-3.21 2.47-9.61 7.55-21.12 16.58-2.58 2.02-4.56 3.24-5.94 3.65-2.22.66-4.54.64-6.97-.06-4.08-1.18-6.8-3.63-8.16-7.33-1.79-4.89 1.82-7.65 5.67-10.84 6.18-5.11 15.51-12.62 28-22.54 10.13-8.04 15.37-12.2 15.74-12.49 4.28-3.38 8.64-5.12 13.83-6.29 2.24-.5 5.28-.7 9.11-.6 1.86.05 5.63.14 11.29.29 2.92.08 10.48.38 22.68.92.31.01.62-.04.91-.16 3.61-1.53 8.44-3.57 12.58-4.6 5.16-1.29 9.96-1.93 14.39-1.92 39.42.09 70.03.08 91.83-.02 2.91-.01 5.04.04 6.4.16.66.06 1.27.39 1.82 1Z" class="cls-2"></path><path d="M347.84 294.04a.3.3 0 0 1-.11-.23c0-.11.06-.21.16-.27 7.06-3.76 13.87-7.6 20.43-11.53 9.33-5.59 20.98-8.12 32.35-8.2q27.24-.195 34.71-.24c4.51-.03 7.99-.18 10.43-.47 3.69-.44 7.12-1.05 10.27-1.84.05-.01.1-.02.15-.02.34 0 .62.28.62.62v.09c-.35 2.44-1.13 4.77-2.31 6.98-3.78 7.05-9.45 12.21-16.19 16.47-10.37 6.54-22.44 7.88-35 7.46q-7.38-.24-13.47.18c-4.11.29-8.4 1.23-12.86 2.83-3.05 1.09-5.69 2.55-8.67 4.05-.44.22-.97.16-1.34-.15l-19.17-15.71Z" class="cls-2"></path><path d="m231.91 324.36-8.21 9.06a6.81 6.81 0 0 1-9.61.47l-2.92-2.65a6.81 6.81 0 0 1-.47-9.61l8.21-9.06a6.81 6.81 0 0 1 9.61-.47l2.92 2.65a6.81 6.81 0 0 1 .47 9.61" class="cls-1"></path><path d="M374.6 317.24a.4.4 0 0 1-.11-.28.4.4 0 0 1 .28-.39c4.4-1.48 9.06-2.6 13.98-3.35 3.48-.54 8.55-.7 11.3-.74 5.95-.09 13.51-.24 22.67-.44a.7.7 0 0 1 .71.64c.4 4.32-.79 8.25-3.57 11.8-1.55 1.98-3.06 3.54-4.52 4.66-7.23 5.57-15.36 7.97-24.22 8.87h-.06c-.33 0-.6-.27-.6-.6v-.06c.31-3.07-1.32-6.47-3.19-9.36-1.02-1.57-2.77-3.32-5.25-5.26-2.89-2.25-5.17-3.87-6.84-4.87-.05-.03-.25-.24-.6-.62Z" class="cls-2"></path><path d="m249.37 337.7-9.96 11.54c-2.37 2.74-6.51 3.05-9.25.68l-3.47-2.99c-2.74-2.37-3.05-6.51-.68-9.25l9.96-11.54c2.37-2.74 6.51-3.05 9.25-.68l3.47 2.99c2.74 2.37 3.05 6.51.68 9.25M266.26 352.3l-10.29 12.14c-2.4 2.83-6.66 3.18-9.49.78l-3.62-3.07c-2.83-2.4-3.18-6.66-.78-9.49l10.29-12.14c2.4-2.83 6.66-3.18 9.49-.78l3.62 3.07c2.83 2.4 3.18 6.66.78 9.49" class="cls-1"></path><path d="M218.93 345.78c.67 4.24 4.76 8.21 8.48 10.06 1.91.94 5.02 1.39 6.96 1.71.25.04.45.24.48.49.94 6.75 4.65 11.19 11.16 13.33 1.75.58 3.59.85 5.51.83.54 0 1 .38 1.1.9 1.34 7.16 7.63 12.26 14.63 12.96 6.53.66 10.72-3.77 14.48-8.32.47-.57 1.1-.62 1.9-.15 4.02 2.33 8.33 5.16 12.92 8.48.17.12.26.31.26.52s-.1.4-.27.52c-20.49 14.45-40.47 28.44-59.94 41.96-10.44 7.25-27.21 19.22-41.51 29.13-1.87 1.29-3.37 2.26-4.52 2.89-3.49 1.91-7.29 4.28-9.95.42-.8-1.16-.25-2.37.25-3.84q12.105-36.225 23.58-69.93c4.2-12.35 8.35-24.69 12.43-36.99.52-1.55.94-3.27 1.82-5 .02-.04.06-.06.11-.06.06 0 .11.04.12.1ZM321.91 393.16c.67-.8 2.33-1.46 3.29-2.25 3.07-2.5 5.09-5.72 6.05-9.64v-.02c.06-.19.27-.3.46-.24h.02c5.59 2.1 12.44 1.09 16.89-2.58 2.9-2.39 4.82-5.51 5.75-9.35.05-.23.26-.38.5-.37 3.74.2 7.24-.08 10.56-1.8 5.05-2.62 8.05-6.96 9-13.04.15-.94.57-1.43 1.27-1.47 4.07-.27 7.56-1.8 10.48-4.6.02-.02.05-.04.07-.06a.466.466 0 0 1 .67.23c.84 2.32 1.96 5.51 3.36 9.58 7.01 20.32 14.01 40.54 21 60.67.89 2.57 1.55 4.45 1.96 5.64 3.52 10.08 6.99 20.21 10.41 30.41.87 2.58 1.32 3.93 1.38 4.05.49 1.18.75 2.56-.13 3.8-1.41 1.98-3.89 1.64-5.79.68-2.1-1.05-4.49-2.54-7.18-4.48-10.36-7.46-17.92-12.93-22.69-16.41-23.31-17.02-43.16-31.31-59.56-42.87-.79-.55-2.04-1.42-3.76-2.6-2.26-1.55-3.6-2.5-4.01-2.87-.12-.11-.14-.3-.03-.42Z" class="cls-2"></path><path d="m282.87 367.34-9.48 11.1a7.03 7.03 0 0 1-9.91.78l-3.12-2.67a7.03 7.03 0 0 1-.78-9.91l9.48-11.1a7.03 7.03 0 0 1 9.91-.78l3.12 2.67c2.95 2.52 3.3 6.96.78 9.91" class="cls-1"></path></svg></svg><style>@media (prefers-color-scheme: light) { :root { filter: none; } }
@media (prefers-color-scheme: dark) { :root { filter: none; } }
</style></svg>