<svg xmlns="http://www.w3.org/2000/svg" id="Layer_2" data-name="Layer 2" viewBox="0 0 235.62 98.58"><defs><style>.cls-1{fill:#fff}</style></defs><g id="Layer_1-2" data-name="Layer 1"><path d="M23.21 26.92c-1.68 0-3.26-.29-4.74-.88-1.48-.58-2.79-1.42-3.92-2.52a11.95 11.95 0 0 1-2.68-3.96c-.65-1.54-.98-3.27-.98-5.18s.36-3.84 1.07-5.58 1.7-3.27 2.98-4.58c1.27-1.32 2.76-2.35 4.48-3.1S23.01 0 25.04 0c1.87 0 3.54.31 5 .95 1.47.63 2.69 1.47 3.67 2.52s1.64 2.22 2 3.5l-4.97 2.31c-.37-1.26-1.08-2.3-2.12-3.13s-2.37-1.24-4.01-1.24c-1.21 0-2.32.23-3.33.7a8 8 0 0 0-2.62 1.96c-.75.84-1.33 1.82-1.73 2.94-.41 1.12-.61 2.33-.61 3.64 0 1.59.3 2.98.91 4.17s1.46 2.11 2.56 2.75q1.65.96 3.81.96c1.21 0 2.33-.23 3.36-.68 1.03-.46 1.88-1.11 2.55-1.98.68-.86 1.08-1.9 1.23-3.11l.28-2.17 2.35 2.1h-9.45l.31-4.55h12.43l-.32 3.46c-.19 1.98-.68 3.72-1.47 5.2s-1.8 2.71-3.01 3.69a13 13 0 0 1-4.04 2.21c-1.48.49-3.02.73-4.6.73ZM36.2 26.5 48.66.42h7.21l5.18 26.08h-5.7l-.98-5.32h-9.52l-2.49 5.32zm10.81-10.05h6.47L51.24 4.2l1.44.17zM63.74 26.5 67.38.42H77c1.68 0 3.15.3 4.41.89 1.26.6 2.25 1.48 2.96 2.64.71 1.17 1.07 2.61 1.07 4.34 0 1.24-.22 2.38-.65 3.43q-.645 1.575-1.86 2.73c-1.215 1.155-1.78 1.38-2.92 1.82l4.38 10.22h-5.77l-4.87-11.62L77 17.04h-6.51l-1.33 9.45h-5.42Zm7.42-14.18h4.66c.82 0 1.53-.18 2.15-.53s1.11-.83 1.47-1.43q.54-.915.54-2.07c0-.96-.31-1.72-.93-2.29s-1.45-.86-2.5-.86h-4.41zM92.44 26.5l1.58-11.38L87.44.42h5.84l4.76 11.06H95.8L103.61.42h6.58L99.52 15.09 97.94 26.5zM17.76 56.62l.3-1.2h2.7q3.66 0 6.15-1.62c2.49-1.62 2.99-2.47 3.99-4.17q1.5-2.55 2.16-5.46t.66-5.49q0-3-1.08-4.65t-3.54-1.65q-.84 0-1.23.42t-.63 1.53-.78 3.21L18.54 67.3q-.42 1.68-.36 2.79t.99 1.68 2.91.69l-.24 1.2q-2.04-.12-4.74-.15t-5.7-.03q-3.42 0-6.51.03T0 73.66l.24-1.2q2.04-.12 3.18-.48t1.8-1.44 1.2-3.24l7.92-29.76q.36-1.8.39-2.88t-.81-1.62-3.12-.66l.3-1.2q1.74.06 4.83.12t6.15.06q2.16 0 4.35-.06t4.41-.06q7.92 0 11.73 2.22t3.81 6.84c0 4.62-1.1 5.91-3.3 8.37q-3.3 3.69-9.21 5.82t-13.71 2.13zM59.34 67.3q-.54 2.16-.48 3.24t1.02 1.44 3 .48l-.24 1.2q-1.92-.12-4.98-.15a637 637 0 0 0-12.3 0q-2.82.03-4.56.15l.3-1.2q1.98-.12 3.09-.48t1.77-1.44 1.2-3.24l7.92-29.76q.6-2.22.48-3.27t-1.05-1.44-2.97-.45l.3-1.2a326 326 0 0 0 10.62.18c2.16 0 4.16-.02 6.12-.06q2.94-.06 5.16-.12l-.3 1.2q-2.04.06-3.18.45t-1.77 1.44-1.23 3.27zM106.02 41.98q.06-3.54-.78-5.61c-.84-2.07-1.38-2.36-2.46-2.94q-1.62-.87-4.02-.87h-.18q-1.98 0-3.09.33t-1.71 1.38-1.2 3.27L84.66 67.3q-.54 2.16-.48 3.24t.99 1.41 2.91.33h.78q2.88 0 5.1-1.02t4.17-3.33 3.87-6.27h1.32q-.3.78-.63 1.92c-.33 1.14-.43 1.56-.63 2.4q-.3 1.14-.78 3.27c-.48 2.13-.58 2.89-.78 4.41q-3.06-.12-6.81-.15t-6.75-.03h-4.08q-2.46 0-5.37.03l-5.85.06q-2.94.03-5.58.09l.24-1.2q2.04-.12 3.18-.48t1.8-1.44c.66-1.08.84-1.8 1.2-3.24l7.92-29.76q.6-2.22.48-3.27t-1.05-1.44-2.97-.45l.3-1.2q2.58.06 5.52.09l5.85.06q2.91.03 5.37.03h4.08c1.84 0 3.9 0 6.18-.03q3.42-.03 6.24-.15-.78 2.1-1.29 3.57t-.99 3.51q-.24 1.08-.45 2.04t-.33 1.68zM83.46 52.9l.24-1.2h12.84l-.24 1.2zm6.42-1.2q1.44 0 2.79-.54t2.46-1.5 1.98-2.16 1.35-2.52h1.32q-.78 2.34-1.17 3.87t-.87 3.45q-.3 1.2-.54 2.13t-.45 2.07-.57 3.12h-1.32q0-1.02-.27-2.19c-.27-1.17-.49-1.51-.93-2.19q-.66-1.02-1.8-1.68t-2.82-.66zM124.62 53.08l.3-.96h1.5q2.04 0 4.17-.81t3.96-2.49 2.94-4.32 1.11-6.24q0-3.06-1.11-4.47t-3.09-1.41q-1.2 0-1.92.63t-1.2 2.49l-8.4 31.8q-.48 1.8-.57 2.88t.81 1.62 3.24.66l-.24 1.2q-2.04-.12-4.77-.15t-5.91-.03c-3.18 0-4.21.01-6.27.03q-3.09.03-4.89.15l.24-1.2q2.04-.12 3.18-.48t1.8-1.44c.66-1.08.84-1.8 1.2-3.24l7.86-29.76q.48-1.8.51-2.88t-.84-1.62-3.15-.66l.3-1.2q1.2.06 3 .09l3.75.06q1.95.03 3.45.03 3.18 0 5.25-.06t3.93-.06q8.16 0 12.03 1.86t3.87 6.42q0 4.2-2.97 7.2t-8.28 4.62-12.39 1.62zm1.2-.78 1.44.12 1.41.12 1.41.12q3.06.18 5.79.54t4.77 1.23 3 2.46.54 4.23l-1.02 6.24q-.3 1.98.18 2.85t1.62.87q1.26 0 2.16-.99t1.56-2.85l.3-.84h1.38l-.24.78q-1.14 3.78-3.66 5.55t-6.84 1.77q-4.98 0-7.05-2.1t-1.47-5.7l1.14-6.84q.36-2.04 0-3.54t-1.86-2.34-4.68-.84zM197.76 31.18q-.9 2.34-1.86 5.67t-1.98 8.13h-1.32q.54-3 .57-5.4t-.99-4.14q-1.14-1.98-2.76-2.7c-1.62-.72-2.36-.72-3.84-.72q-2.88 0-5.55 1.47t-4.89 4.14-3.9 6.21-2.61 7.74-.93 8.7q0 6.24 2.13 9.09t5.73 2.85q1.98 0 4.11-.9t3.69-2.58q1.62-1.74 2.79-3.87t2.61-5.61h1.32q-1.5 5.46-2.31 8.79c-.81 3.33-.95 4.09-1.23 5.61h-1.32q.18-1.26.18-2.04 0-1.2-.48-1.47t-1.5.45a25 25 0 0 1-3.45 1.98q-1.89.9-4.02 1.41t-4.53.51q-9.18 0-13.35-4.08t-4.17-11.28q0-4.32 1.44-8.49t4.14-7.83 6.48-6.48 8.43-4.41 9.93-1.59q2.4 0 4.05.54t2.82 1.44 2.01 1.92q.78.96 1.59.18t1.71-3.24zM231.24 41.98q.06-3.54-.78-5.61c-.84-2.07-1.38-2.36-2.46-2.94q-1.62-.87-4.02-.87h-.18q-1.98 0-3.09.33T219 34.27t-1.2 3.27l-7.92 29.76q-.54 2.16-.48 3.24t.99 1.41 2.91.33h.78q2.88 0 5.1-1.02t4.17-3.33 3.87-6.27h1.32q-.3.78-.63 1.92c-.33 1.14-.43 1.56-.63 2.4q-.3 1.14-.78 3.27c-.48 2.13-.58 2.89-.78 4.41q-3.06-.12-6.81-.15t-6.75-.03h-4.08q-2.46 0-5.37.03l-5.85.06q-2.94.03-5.58.09l.24-1.2q2.04-.12 3.18-.48t1.8-1.44c.66-1.08.84-1.8 1.2-3.24l7.92-29.76q.6-2.22.48-3.27t-1.05-1.44-2.97-.45l.3-1.2q2.58.06 5.52.09l5.85.06q2.91.03 5.37.03h4.08c1.84 0 3.9 0 6.18-.03q3.42-.03 6.24-.15-.78 2.1-1.29 3.57t-.99 3.51q-.24 1.08-.45 2.04t-.33 1.68zM208.68 52.9l.24-1.2h12.84l-.24 1.2zm6.42-1.2q1.44 0 2.79-.54t2.46-1.5 1.98-2.16 1.35-2.52H225q-.78 2.34-1.17 3.87t-.87 3.45q-.3 1.2-.54 2.13t-.45 2.07-.57 3.12h-1.32q0-1.02-.27-2.19c-.27-1.17-.49-1.51-.93-2.19q-.66-1.02-1.8-1.68t-2.82-.66zM56.16 98.33l2.18-15.64h10.71l-.4 2.83h-7.46l-.55 3.97h6.41l-.4 2.83h-6.4l-.84 6.01h-3.26ZM76.8 98.58c-1.13 0-2.18-.19-3.14-.57s-1.79-.91-2.5-1.6q-1.065-1.035-1.65-2.4c-.585-1.365-.59-1.92-.59-3.01 0-1.22.22-2.34.67-3.38s1.07-1.94 1.87-2.72 1.73-1.38 2.78-1.82c1.06-.43 2.2-.65 3.43-.65 1.15 0 2.2.19 3.16.57s1.79.91 2.5 1.59 1.25 1.48 1.64 2.39c.38.92.58 1.92.58 2.99 0 1.22-.22 2.35-.67 3.39S83.81 95.32 83 96.1a9 9 0 0 1-2.79 1.83c-1.06.43-2.19.65-3.41.65m0-2.94q1.14 0 2.13-.42c.66-.28 1.25-.67 1.75-1.18.5-.5.9-1.1 1.19-1.79s.43-1.45.43-2.26q0-1.38-.6-2.43c-.4-.69-.95-1.23-1.64-1.62-.69-.38-1.49-.58-2.38-.58q-1.14 0-2.13.42c-.67.28-1.25.67-1.75 1.17s-.9 1.09-1.19 1.77-.43 1.44-.43 2.27c0 .91.2 1.72.6 2.42s.95 1.25 1.64 1.64 1.49.59 2.38.59M86.8 98.33l2.18-15.64h5.77c1.01 0 1.89.18 2.65.54q1.14.54 1.77 1.59c.63 1.05.64 1.57.64 2.6 0 .74-.13 1.43-.39 2.06s-.63 1.18-1.11 1.64-1.07.83-1.75 1.09l2.62 6.13h-3.46l-2.92-6.97 1.95 1.3h-3.91l-.8 5.67h-3.26Zm4.45-8.51h2.79c.49 0 .92-.1 1.29-.31s.66-.5.88-.86.33-.78.33-1.24c0-.57-.19-1.03-.56-1.38s-.87-.51-1.5-.51h-2.65l-.59 4.3ZM112.86 98.58c-1.01 0-1.96-.17-2.84-.52-.89-.35-1.67-.85-2.35-1.51s-1.21-1.45-1.61-2.37c-.39-.92-.59-1.96-.59-3.11s.21-2.31.64-3.35 1.02-1.96 1.79-2.75 1.66-1.41 2.69-1.86 2.15-.67 3.37-.67q1.68 0 3 .57c1.32.57 1.62.88 2.21 1.51q.885.945 1.2 2.1l-2.98 1.39c-.22-.76-.65-1.38-1.27-1.88q-.93-.75-2.4-.75c-.73 0-1.39.14-2 .42-.6.28-1.13.67-1.58 1.18-.45.5-.79 1.09-1.04 1.76-.24.67-.37 1.4-.37 2.18 0 .95.18 1.79.55 2.5q.54 1.065 1.53 1.65c.66.39 1.42.58 2.29.58.73 0 1.4-.14 2.02-.41a3.83 3.83 0 0 0 1.53-1.19c.41-.52.65-1.14.73-1.87l.17-1.3 1.41 1.26h-5.67l.19-2.73h7.46l-.19 2.08c-.11 1.19-.41 2.23-.88 3.12-.48.89-1.08 1.63-1.81 2.22s-1.54 1.03-2.43 1.32-1.81.44-2.76.44ZM130.33 98.58c-1.13 0-2.18-.19-3.14-.57s-1.79-.91-2.5-1.6a7.4 7.4 0 0 1-1.65-2.4c-.39-.92-.59-1.92-.59-3.01 0-1.22.22-2.34.67-3.38a8.4 8.4 0 0 1 1.87-2.72c.8-.78 1.72-1.38 2.78-1.82 1.06-.43 2.2-.65 3.43-.65 1.15 0 2.2.19 3.16.57s1.79.91 2.5 1.59 1.25 1.48 1.64 2.39c.38.92.58 1.92.58 2.99 0 1.22-.22 2.35-.67 3.39s-1.08 1.96-1.88 2.74-1.74 1.39-2.79 1.83c-1.06.43-2.19.65-3.41.65m0-2.94q1.14 0 2.13-.42a5.25 5.25 0 0 0 1.75-1.18c.5-.5.9-1.1 1.19-1.79s.43-1.45.43-2.26q0-1.38-.6-2.43c-.4-.69-.95-1.23-1.64-1.62-.69-.38-1.49-.58-2.38-.58q-1.14 0-2.13.42c-.67.28-1.25.67-1.75 1.17s-.9 1.09-1.19 1.77-.43 1.44-.43 2.27c0 .91.2 1.72.6 2.42s.95 1.25 1.64 1.64 1.49.59 2.38.59M144.1 98.33l-3.17-15.64h3.44l2.27 12.56h-.76l5.8-12.56h3.74l-7.54 15.64zM154.86 98.33l2.18-15.64h10.52l-.4 2.83h-7.27l-.48 3.55h6.85l-.4 2.83h-6.85l-.5 3.59h7.27l-.4 2.83h-10.52ZM167.23 98.33l2.18-15.64h5.78c1.01 0 1.89.18 2.65.54q1.14.54 1.77 1.59c.63 1.05.64 1.57.64 2.6 0 .74-.13 1.43-.39 2.06s-.63 1.18-1.11 1.64-1.07.83-1.75 1.09l2.62 6.13h-3.46l-2.92-6.97 1.95 1.3h-3.91l-.8 5.67h-3.25Zm4.45-8.51h2.79c.49 0 .92-.1 1.29-.31s.67-.5.88-.86.33-.78.33-1.24c0-.57-.19-1.03-.56-1.38s-.87-.51-1.5-.51h-2.65l-.59 4.3ZM181.46 98.33l2.18-15.64h2.5l6.66 11.07-1.2.32 1.6-11.38h3.25l-2.18 15.64h-2.52l-6.51-11.15 1.07-.32-1.6 11.47h-3.25ZM205.57 98.58c-1.13 0-2.18-.19-3.14-.57s-1.79-.91-2.5-1.6a7.4 7.4 0 0 1-1.65-2.4c-.39-.92-.59-1.92-.59-3.01 0-1.22.22-2.34.67-3.38a8.4 8.4 0 0 1 1.87-2.72c.8-.78 1.73-1.38 2.78-1.82 1.06-.43 2.2-.65 3.43-.65 1.15 0 2.2.19 3.16.57s1.79.91 2.5 1.59 1.25 1.48 1.64 2.39c.38.92.58 1.92.58 2.99 0 1.22-.22 2.35-.67 3.39a8.4 8.4 0 0 1-1.88 2.74 9 9 0 0 1-2.79 1.83 9 9 0 0 1-3.41.65m0-2.94q1.14 0 2.13-.42c.66-.28 1.25-.67 1.75-1.18.5-.5.9-1.1 1.19-1.79s.43-1.45.43-2.26q0-1.38-.6-2.43c-.4-.69-.95-1.23-1.64-1.62s-1.49-.58-2.38-.58q-1.14 0-2.13.42c-.67.28-1.25.67-1.75 1.17s-.9 1.09-1.19 1.77-.43 1.44-.43 2.27c0 .91.2 1.72.6 2.42s.95 1.25 1.64 1.64 1.49.59 2.38.59M215.57 98.33l2.18-15.64h5.77c1.01 0 1.89.18 2.65.54a4.1 4.1 0 0 1 1.78 1.59c.43.7.64 1.57.64 2.6 0 .74-.13 1.43-.39 2.06s-.63 1.18-1.11 1.64-1.07.83-1.75 1.09l2.62 6.13h-3.46l-2.92-6.97 1.95 1.3h-3.91l-.8 5.67h-3.25Zm4.45-8.51h2.79c.49 0 .92-.1 1.29-.31s.67-.5.88-.86c.22-.36.33-.78.33-1.24 0-.57-.19-1.03-.56-1.38s-.87-.51-1.5-.51h-2.65l-.59 4.3Z" class="cls-1"/></g></svg>