<svg xmlns="http://www.w3.org/2000/svg" id="Layer_2" data-name="Layer 2" viewBox="0 0 512.57 493.12"><defs><style>.cls-1{fill-rule:evenodd}.cls-1,.cls-2{fill:#fff}</style></defs><g id="Layer_1-2" data-name="Layer 1"><path d="M234.49 371.36c-.28-.2-.36-.6-.17-.89 2.22-3.41 3.35-7.04 3.41-10.89.1-6.09-3.1-11.61-7.63-15.56-4.47-3.9-9.51-5.68-15.12-5.35h-.03c-.24 0-.43-.2-.42-.43v-.03c.31-3.51-.83-7.08-3.42-10.72-4.32-6.08-10.98-8.73-18.33-9.22a.54.54 0 0 1-.49-.43c-2.15-10.59-10.8-18.21-21.79-18.01-.22 0-.43-.13-.51-.34-1.54-3.91-2.51-6.17-2.88-6.78-3.62-5.86-9.46-10.61-16.45-11.25-7.22-.66-12.73 3.63-17.86 8.57-.64.6-1.55.82-2.38.56-.41-.13-1.03-.51-1.85-1.14-38.06-29.16-77-58.93-116.85-89.29a98 98 0 0 1-10.86-9.62c-.59-.61-.87-1.36-.85-2.25q.09-3.69 3.9-3.87c2.67-.13 5.9-.19 9.68-.18 41.15.05 97.76.08 169.85.07 2.78 0 3.42-1.15 4.3-3.71 16.12-46.72 26.26-76.2 30.43-88.44 9.35-27.48 19.54-55.86 29.67-85.38.62-1.83 1.69-4.48 3.26-5.57 2.49-1.73 4.97-1.58 7.43.45.74.6 1.52 1.97 2.35 4.13 2.13 5.49 4.53 12.03 7.2 19.63q35.385 100.815 53.01 151.23c0 .03.01.06.01.09 0 .16-.13.28-.28.28h-.03c-8.73-.94-16.93-1.41-24.58-1.4-14.58.02-26.8 5.89-37.88 15.05-3.51 2.9-5.53 4.56-6.08 5-15.62 12.35-32.31 25.59-50.05 39.72a117 117 0 0 1-3.65 2.8c-9.5 6.88-11.58 18.68-3.75 27.8q1.785 2.085 5.46 4.59c5.92 4.04 11.9 5.59 17.94 4.67 4.22-.65 8.57-2.67 13.04-6.08.56-.42 5.55-4.5 14.96-12.23 1.35-1.11 4.57-3.73 9.66-7.88 3.85-3.13 6.77-4.96 8.76-5.48 4.42-1.16 8.61-.12 12.57 3.13 5.92 4.84 14 11.61 24.26 20.33 7.66 6.51 15.69 13.26 24.09 20.26 18.59 15.51 29.15 24.38 31.66 26.61 4.48 3.96 6.59 9.44 4.37 15.08-2.14 5.46-10.12 9.53-15.68 7.7-1.67-.55-3.2-1.38-4.6-2.48-14.16-11.11-30.69-24.58-49.6-40.43-1.19-1-2.97-.87-4.01.28l-.07.08c-.45.5-.69 1.14-.69 1.81 0 .8.35 1.56.96 2.07 6.81 5.72 17.96 14.86 33.46 27.43 9.65 7.83 14.56 11.82 14.72 11.95 4.53 3.69 6.65 8.06 3.72 13.69-3.16 6.09-9.76 8.93-16.48 6.89-1.49-.45-3.61-1.81-6.36-4.06-16.64-13.66-27.67-22.91-41.67-34.42-1.1-.91-2.18-1.31-3.23-1.22-1.02.09-1.66.53-1.9 1.31-.76 2.42 1.07 4.13 2.82 5.56 15.14 12.29 26.67 21.67 34.6 28.15 4.01 3.28 6.61 5.21 7.49 9.66.93 4.7-3.44 9.69-7.22 12.01-4.52 2.78-9.36 2.04-13.88-.55-1.04-.6-2.56-1.77-4.56-3.53-.97-.85-2.51-2.13-4.6-3.83q-16.29-13.215-18.21-14.94c-3.22-2.87-6.26-5.32-9.14-7.35-1.14-.81-2.75-.57-3.59.56l-.06.07c-.84 1.1-.68 2.68.36 3.6 4.43 3.92 13.04 11.27 19.88 16.78 6.22 5 12.02 9.94 9.13 18.48-1.47 4.35-5.59 8.1-10.14 9.12-2.08.47-4.19.37-6.34-.28-1.26-.38-3.11-1.42-5.54-3.13-7.81-5.5-14.07-9.93-18.78-13.28-2.64-1.88-4.59-2.97-7.86-5.3Z" class="cls-2"/><path d="M511.73 180.94c1.81 1.95.37 4.91-1.22 6.73q-6.06 6.96-12.72 12.27c-5.16 4.12-9.94 7.58-14.35 10.38-13.14 8.35-27.52 13.59-43.15 15.73-5.84.8-12.6 1.27-20.3 1.42q-15.165.3-29.19.48c-17.09.23-34.35 3.59-49.21 12.99-8.6 5.43-17.67 10.68-24.75 14.88-1.22.73-3.5 1.59-6.84 2.61-.24.07-.48.1-.72.07q-4.215-.42-7.08-2.7-4.29-3.435-18.84-15.45c-4.21-3.48-9-5.46-14.35-5.92-4.73-.41-9.24 2.38-13.3 5.51-4.27 3.29-12.8 10.06-28.15 22.1q-5.16 4.05-7.92 4.86c-2.96.88-6.06.85-9.29-.08-5.44-1.58-9.07-4.83-10.87-9.76-2.38-6.52 2.43-10.2 7.56-14.45 8.24-6.81 20.68-16.83 37.32-30.05 13.5-10.71 20.49-16.26 20.98-16.64 5.71-4.5 11.51-6.83 18.43-8.38 2.98-.66 7.03-.93 12.15-.8 2.48.06 7.5.19 15.05.39 3.89.1 13.97.51 30.23 1.23.41.02.83-.06 1.21-.22 4.81-2.04 11.25-4.75 16.77-6.13 6.88-1.72 13.27-2.58 19.19-2.56 52.54.12 93.33.11 122.4-.03 3.88-.02 6.72.05 8.53.21.88.08 1.69.52 2.43 1.33Z" class="cls-2"/><path d="M314.07 267.17a.42.42 0 0 1-.15-.31c0-.15.08-.28.21-.35 9.41-5.01 18.48-10.13 27.23-15.37 12.43-7.45 27.96-10.82 43.12-10.93 24.2-.18 39.63-.28 46.27-.32 6.01-.03 10.65-.24 13.91-.63 4.92-.58 9.49-1.4 13.69-2.45q.105-.03.21-.03c.45 0 .83.37.83.83v.11c-.47 3.25-1.5 6.35-3.08 9.3-5.04 9.4-12.59 16.28-21.57 21.95-13.82 8.71-29.91 10.5-46.65 9.94-6.55-.21-12.54-.13-17.95.24-5.48.38-11.2 1.64-17.14 3.77-4.06 1.45-7.58 3.4-11.55 5.4-.59.29-1.29.22-1.79-.2l-25.55-20.94Z" class="cls-2"/><path d="m159.55 307.58-10.95 12.07c-3.36 3.71-9.1 3.99-12.81.63l-3.89-3.53c-3.71-3.36-3.99-9.1-.63-12.81l10.95-12.07c3.36-3.71 9.1-3.99 12.81-.63l3.89 3.53c3.71 3.36 3.99 9.1.63 12.81" class="cls-1"/><path d="M349.74 298.09a.55.55 0 0 1-.14-.37c0-.24.15-.45.38-.52 5.86-1.97 12.07-3.46 18.63-4.46 4.64-.72 11.39-.93 15.07-.99 7.94-.12 18.01-.32 30.21-.59.49 0 .9.37.95.85.53 5.76-1.05 11-4.75 15.72-2.07 2.64-4.08 4.72-6.03 6.22-9.64 7.43-20.48 10.63-32.28 11.82h-.08c-.44 0-.8-.36-.8-.8v-.08c.41-4.1-1.76-8.63-4.25-12.48-1.35-2.09-3.69-4.43-7-7.01-3.85-3-6.88-5.16-9.11-6.49-.07-.04-.34-.32-.8-.83Z" class="cls-2"/><path d="m182.83 325.36-13.27 15.38c-3.15 3.65-8.68 4.06-12.33.91l-4.62-3.99c-3.65-3.15-4.06-8.68-.91-12.33l13.27-15.38c3.15-3.65 8.68-4.06 12.33-.91l4.62 3.99c3.65 3.15 4.06 8.68.91 12.33M205.33 344.82l-13.72 16.17c-3.2 3.78-8.87 4.24-12.65 1.04l-4.82-4.09c-3.78-3.2-4.24-8.87-1.04-12.65l13.72-16.17c3.2-3.78 8.87-4.24 12.65-1.04l4.82 4.09c3.78 3.2 4.24 8.87 1.04 12.65" class="cls-1"/><path d="M142.25 336.12c.9 5.65 6.34 10.95 11.31 13.41 2.54 1.26 6.69 1.86 9.28 2.28.34.06.6.32.64.66 1.25 8.99 6.2 14.91 14.87 17.76 2.33.77 4.78 1.14 7.35 1.1.71 0 1.34.5 1.47 1.21 1.78 9.54 10.17 16.34 19.5 17.28 8.71.88 14.29-5.02 19.3-11.09.62-.75 1.47-.82 2.53-.2 5.36 3.11 11.1 6.88 17.22 11.3.22.16.35.42.35.69s-.13.53-.36.69q-40.965 28.905-79.89 55.92c-13.92 9.66-36.27 25.62-55.33 38.83-2.49 1.72-4.5 3.01-6.03 3.85-4.65 2.55-9.71 5.7-13.26.56-1.07-1.55-.33-3.15.33-5.12 10.76-32.19 21.24-63.26 31.43-93.2 5.6-16.47 11.13-32.9 16.56-49.3.69-2.07 1.26-4.36 2.43-6.66a.16.16 0 0 1 .14-.08c.08 0 .15.06.16.13ZM279.51 399.28c.89-1.07 3.1-1.95 4.39-3 4.09-3.34 6.78-7.62 8.07-12.85v-.03c.08-.25.35-.4.61-.32h.02c7.45 2.8 16.58 1.45 22.52-3.43 3.87-3.18 6.42-7.34 7.66-12.47.07-.3.35-.51.66-.5 4.99.26 9.66-.11 14.07-2.4 6.73-3.49 10.73-9.28 12-17.38.19-1.25.76-1.91 1.69-1.96 5.42-.36 10.07-2.4 13.96-6.13.03-.03.06-.06.1-.08.28-.18.66-.09.84.2.02.04.04.07.05.11 1.12 3.09 2.61 7.34 4.48 12.77 9.34 27.08 18.67 54.04 27.99 80.87 1.19 3.43 2.06 5.93 2.61 7.52 4.69 13.43 9.31 26.94 13.88 40.53q1.725 5.16 1.83 5.4c.65 1.57 1 3.41-.17 5.06-1.88 2.64-5.19 2.18-7.72.91q-4.2-2.1-9.57-5.97-20.7-14.91-30.24-21.87c-31.06-22.68-57.52-41.73-79.38-57.14-1.05-.74-2.72-1.89-5.02-3.47-3.01-2.06-4.79-3.34-5.34-3.82a.406.406 0 0 1-.04-.56Z" class="cls-2"/><path d="m227.48 364.87-12.63 14.79c-3.36 3.93-9.27 4.4-13.2 1.04l-4.16-3.56c-3.93-3.36-4.4-9.27-1.04-13.2l12.63-14.79c3.36-3.93 9.27-4.4 13.2-1.04l4.16 3.56c3.93 3.36 4.4 9.27 1.04 13.2" class="cls-1"/></g></svg>